<?xml version="1.0" standalone="no"?>
<!DOCTYPE svg PUBLIC "-//W3C//DTD SVG 20010904//EN"
 "http://www.w3.org/TR/2001/REC-SVG-20010904/DTD/svg10.dtd">
<svg version="1.0" xmlns="http://www.w3.org/2000/svg"
 width="983.000000pt" height="671.000000pt" viewBox="0 0 983.000000 671.000000"
 preserveAspectRatio="xMidYMid meet">

<g transform="translate(0.000000,671.000000) scale(0.100000,-0.100000)"
fill="#000000" stroke="none">
<path d="M7761 6655 c-60 -17 -133 -54 -138 -70 -1 -5 31 -34 73 -64 41 -29
109 -80 149 -112 166 -134 140 -196 -55 -128 -30 10 -57 19 -60 19 -3 0 -5
-116 -5 -257 l0 -258 -40 -115 -40 -115 -455 -5 -455 -5 -6 -65 c-4 -36 -10
-120 -14 -187 -4 -68 -11 -123 -15 -123 -4 0 -24 29 -45 65 -98 167 -257 276
-467 320 -91 20 -294 19 -378 0 -193 -45 -389 -168 -509 -319 -54 -67 -112
-170 -131 -229 -27 -87 -28 -19 -4 306 9 115 13 215 10 223 -5 12 -122 14
-838 14 -458 0 -838 -4 -844 -8 -6 -4 -14 -44 -18 -89 -11 -140 -58 -831 -81
-1203 -8 -129 -17 -250 -20 -268 -13 -74 -7 -310 10 -388 25 -118 91 -246 174
-335 100 -109 208 -165 396 -205 l40 -9 -2 -55 c-6 -155 -38 -610 -43 -610 -3
0 -11 46 -17 103 -20 187 -79 312 -203 437 -137 137 -310 202 -540 203 -171 1
-258 -20 -416 -100 -78 -39 -95 -39 -152 6 -24 17 -24 17 65 39 177 43 367
166 470 305 58 79 116 199 147 307 26 92 49 285 66 560 17 269 39 607 45 685
3 38 12 171 20 295 8 124 17 246 19 272 2 35 -1 49 -12 53 -21 8 -845 5 -858
-3 -6 -4 -14 -54 -17 -112 -4 -58 -14 -202 -22 -320 -8 -118 -22 -321 -30
-450 -11 -157 -20 -237 -28 -242 -7 -4 -158 -7 -337 -5 l-325 2 -6 145 -6 145
33 87 c18 48 36 102 39 121 5 24 25 52 66 93 56 56 75 94 46 94 -8 0 -22 -9
-33 -21 -26 -28 -69 -50 -87 -43 -24 9 -26 54 -6 133 46 180 4 189 -56 12 -12
-36 -26 -66 -33 -69 -25 -8 -32 36 -23 144 10 108 2 154 -24 154 -15 0 -20
-27 -35 -159 -6 -52 -13 -97 -15 -100 -11 -10 -28 19 -36 61 -4 24 -8 75 -9
113 0 39 -3 80 -6 93 -8 27 -30 29 -44 3 -14 -27 -13 -275 2 -361 13 -73 8
-93 -24 -113 -22 -14 -80 0 -123 29 -42 28 -78 28 -83 1 -5 -26 18 -48 136
-134 56 -41 106 -82 111 -92 5 -9 15 -89 22 -179 12 -149 11 -165 -4 -191 -13
-22 -17 -53 -17 -129 0 -56 -4 -103 -9 -107 -6 -3 -7 -43 -4 -93 5 -85 4 -91
-26 -156 -30 -61 -37 -69 -85 -90 -54 -24 -65 -35 -116 -118 -33 -53 -46 -57
-125 -36 -43 12 -49 11 -103 -19 -31 -17 -94 -40 -138 -51 -105 -26 -150 -50
-201 -105 -53 -58 -58 -67 -87 -180 -30 -115 -63 -184 -117 -242 -62 -67 -111
-86 -223 -88 l-95 -2 -35 34 c-44 42 -71 38 -119 -22 -74 -90 -91 -154 -62
-224 19 -45 20 -40 -15 -58 -28 -15 -30 -19 -24 -53 4 -20 15 -64 26 -96 10
-33 18 -83 17 -112 -2 -60 31 -137 88 -204 43 -50 137 -96 227 -110 156 -25
288 37 355 168 23 45 57 77 90 85 15 4 55 -4 100 -20 42 -14 101 -29 131 -33
53 -6 61 -4 244 77 l188 83 33 -20 c25 -16 50 -20 112 -20 88 0 93 -3 112 -62
15 -47 90 -131 145 -163 22 -13 82 -39 132 -59 202 -76 336 -161 394 -249 22
-33 40 -63 40 -68 0 -5 -55 -10 -123 -11 l-122 -3 -7 -100 c-4 -55 -12 -158
-18 -230 -5 -71 -10 -134 -10 -140 -1 -24 31 -184 43 -221 14 -38 13 -41 -9
-67 -15 -17 -24 -41 -24 -60 0 -59 82 -206 163 -294 38 -41 43 -53 53 -123 6
-42 23 -104 38 -136 50 -108 194 -273 285 -327 29 -17 30 -17 40 2 7 12 8 48
3 100 -5 45 -6 83 -4 86 2 2 30 -31 61 -73 68 -91 128 -147 185 -173 46 -21
72 -24 81 -9 3 5 -18 65 -48 132 -69 157 -99 249 -95 290 2 28 7 34 31 36 15
2 49 -4 76 -13 26 -8 55 -13 64 -9 16 6 34 53 39 104 3 23 12 27 92 48 182 46
278 98 408 221 82 77 156 178 190 256 l12 30 4 -38 c2 -20 -4 -137 -12 -259
-9 -122 -12 -226 -8 -230 5 -5 197 -7 428 -6 l419 3 7 79 c11 121 8 123 77
-39 l20 -45 469 0 c258 0 471 2 474 5 4 4 -265 650 -321 770 -5 11 -69 159
-142 328 -97 228 -129 313 -123 326 24 47 629 820 637 812 10 -10 190 -417
439 -995 l59 -138 -10 -167 c-6 -91 -16 -218 -21 -281 -5 -63 -16 -214 -25
-335 -8 -121 -17 -244 -20 -272 l-5 -53 475 0 c372 0 477 3 480 12 2 7 21 254
42 548 l39 535 70 120 c39 66 137 234 218 373 82 138 152 252 156 252 5 0 16
-35 25 -78 44 -201 128 -447 194 -567 104 -189 240 -418 272 -462 47 -63 96
-93 214 -128 188 -57 265 -119 308 -250 23 -69 52 -113 87 -133 28 -16 30 -20
30 -82 0 -36 4 -71 8 -77 12 -19 158 -46 219 -41 45 4 56 2 64 -14 7 -14 21
-18 59 -18 39 0 52 -4 60 -20 10 -20 12 -19 69 10 33 16 76 41 96 55 21 14 51
25 67 25 44 0 145 28 198 55 53 27 107 83 116 121 10 38 -4 171 -26 257 -36
142 -91 217 -192 262 -53 24 -76 28 -158 29 -91 1 -98 -1 -141 -29 -40 -27
-52 -30 -124 -30 l-80 0 0 85 c0 76 4 92 34 154 31 64 33 75 28 134 -4 38 -22
101 -45 160 -21 53 -44 126 -51 162 -20 109 -78 321 -116 424 -24 67 -40 136
-50 215 -50 397 -113 798 -149 953 l-15 66 44 109 c24 60 57 160 75 223 17 63
38 138 45 165 19 66 19 75 -5 75 -16 0 -30 -19 -60 -85 -38 -82 -55 -100 -66
-71 -3 8 1 81 9 163 8 81 13 150 11 152 -13 14 -35 -18 -54 -81 -26 -84 -38
-76 -39 27 -2 102 -5 106 -65 99 -28 -4 -54 -12 -58 -17 -3 -6 -9 -31 -13 -56
-13 -92 -58 -307 -71 -338 -18 -45 -45 -42 -84 7 -29 36 -73 60 -86 47 -3 -3
4 -24 16 -46 11 -23 25 -73 29 -112 9 -70 24 -103 67 -149 45 -49 74 -175 38
-168 -15 3 -104 144 -268 423 l-59 100 16 120 c9 66 23 190 32 275 9 85 18
161 20 168 3 8 34 12 109 12 l104 0 7 131 c7 125 9 133 36 164 54 61 290 204
468 283 58 26 95 35 175 42 142 13 175 19 225 43 63 31 84 64 89 141 5 83 -17
157 -70 226 l-39 52 15 61 c46 184 42 245 -20 370 -71 141 -139 209 -247 247
-53 19 -177 43 -184 36 -2 -2 8 -39 23 -82 34 -103 37 -217 6 -286 -20 -44
-92 -128 -111 -128 -4 0 -29 19 -55 41 -26 23 -51 38 -55 33 -4 -5 -29 -67
-56 -139 -43 -116 -148 -343 -186 -402 -11 -19 -23 -23 -61 -23 -34 0 -48 4
-48 14 0 7 18 83 40 167 34 130 52 178 116 304 42 83 90 169 106 192 25 35 29
48 24 77 -8 42 -46 91 -89 113 -17 9 -56 16 -87 17 -53 1 -57 3 -110 56 -130
130 -378 207 -529 165z m-1561 -1280 c189 -58 322 -195 365 -376 22 -96 20
-116 -17 -147 -18 -15 -80 -70 -138 -123 -149 -135 -137 -129 -260 -129 -58 0
-110 4 -117 8 -9 6 -8 25 3 82 19 100 18 160 -3 190 -27 39 -45 49 -89 50 -72
0 -130 -86 -110 -165 10 -41 142 -175 222 -227 41 -26 74 -50 74 -52 0 -9
-399 -326 -410 -326 -18 0 -218 157 -277 217 -119 120 -167 310 -128 498 50
238 267 445 535 511 73 18 276 11 350 -11z m-2934 -77 c-5 -66 -17 -240 -61
-893 -38 -570 -46 -636 -98 -765 -81 -201 -255 -352 -467 -407 -90 -23 -275
-23 -353 1 -192 57 -330 182 -385 350 -37 113 -46 228 -32 446 7 107 14 198
17 203 2 4 121 7 263 7 142 0 261 -3 263 -7 2 -5 -2 -89 -9 -188 -12 -179 -7
-293 16 -336 9 -15 22 -19 63 -19 80 0 93 7 115 58 25 60 39 133 46 247 3 50
15 221 26 380 11 160 29 427 40 595 11 168 22 326 26 353 l6 47 265 0 266 0
-7 -72z m909 15 c-12 -119 -96 -1401 -97 -1479 0 -44 4 -90 10 -101 13 -23 51
-33 128 -33 129 0 132 7 160 425 13 182 32 467 44 635 11 168 26 374 32 458
l11 152 264 0 263 0 0 -35 c0 -19 -18 -303 -40 -632 -22 -329 -45 -665 -50
-746 -16 -230 -46 -344 -121 -455 -91 -137 -208 -220 -369 -263 -119 -32 -367
-32 -483 -1 -197 54 -315 176 -368 379 -23 91 -24 161 -4 438 8 116 21 316 30
445 8 129 19 291 25 360 5 69 14 212 21 318 l13 192 268 0 269 0 -6 -57z
m3070 38 c-11 -11 -67 -53 -125 -95 -58 -42 -133 -97 -168 -123 -35 -25 -66
-43 -69 -40 -3 4 -2 67 2 142 l7 135 186 0 c184 0 186 0 167 -19z m987 -188
c-7 -115 -15 -218 -18 -230 -4 -23 -5 -23 -210 -23 -155 0 -206 -3 -209 -12
-2 -7 -15 -195 -30 -418 -15 -223 -33 -497 -40 -609 -7 -112 -17 -207 -22
-212 -15 -15 -520 -136 -529 -126 -3 2 2 108 11 233 8 126 26 400 40 609 14
209 30 398 36 420 6 23 9 59 7 80 -2 32 -7 40 -27 45 l-25 6 30 23 c16 12 101
75 189 139 89 64 195 142 235 172 41 30 93 67 115 82 l40 28 210 0 210 0 -13
-207z m-1162 -475 c0 -29 -5 -109 -10 -178 -6 -69 -17 -228 -25 -355 -18 -273
-39 -599 -60 -895 -10 -154 -11 -216 -3 -221 13 -8 15 -5 -57 -127 -33 -56
-64 -101 -69 -99 -6 2 -40 73 -77 158 l-66 154 -244 5 -244 5 75 40 c249 132
409 367 450 660 30 210 -29 415 -160 552 -16 18 -30 34 -30 37 0 4 38 6 84 6
l85 0 5 43 c3 23 11 87 16 142 6 55 13 106 15 113 3 9 44 12 160 12 l155 0 0
-52z m-1925 -116 c18 -75 54 -156 99 -225 20 -30 36 -57 36 -61 0 -3 -41 -6
-91 -6 l-92 0 7 113 c9 154 18 249 23 243 2 -2 11 -31 18 -64z m1312 -319 c82
-80 113 -167 113 -311 0 -311 -185 -565 -480 -660 -139 -45 -338 -52 -478 -16
-102 26 -196 79 -248 140 -40 47 -45 57 -33 68 16 15 358 269 376 279 6 4 24
-4 40 -19 26 -25 32 -26 111 -22 119 6 166 46 178 151 6 50 4 62 -14 86 l-21
29 47 33 c26 18 49 35 52 39 3 3 50 39 105 80 54 41 124 94 155 117 30 24 56
43 57 43 1 0 19 -17 40 -37z m-822 -153 c3 -4 -48 -45 -113 -91 -64 -45 -162
-117 -217 -159 -55 -42 -106 -80 -114 -85 -12 -7 -13 17 -8 160 5 118 11 171
20 177 15 10 425 9 432 -2z m-577 -560 c56 -144 194 -302 327 -372 39 -21 63
-38 55 -38 -8 -1 -121 -1 -250 0 -129 0 -240 -3 -245 -7 -6 -5 -26 -28 -45
-53 l-35 -44 -5 49 -5 50 -105 1 c-59 0 -103 5 -100 10 3 5 30 26 62 47 61 41
158 139 208 212 28 40 74 133 93 188 11 29 21 19 45 -43z m-3248 -182 c0 -12
-118 33 -135 52 -16 18 -16 22 -2 42 8 13 25 34 37 46 l23 24 38 -78 c22 -44
39 -82 39 -86z m5864 -121 c-5 -14 -21 -17 -97 -17 -50 0 -88 2 -85 5 10 11
173 42 181 35 4 -3 5 -14 1 -23z m-4273 -316 c36 -11 92 -38 125 -59 60 -39
154 -134 154 -157 0 -24 -166 -65 -765 -191 -44 -9 -154 -34 -244 -56 -90 -21
-166 -36 -169 -33 -4 3 5 38 18 77 71 209 299 395 540 442 62 12 276 -3 341
-23z m4240 -11 c25 -129 42 -86 -197 -495 -118 -204 -251 -431 -295 -505 l-79
-136 -10 -119 c-6 -66 -17 -212 -25 -325 -32 -459 -36 -506 -40 -517 -3 -10
-71 -13 -295 -13 l-290 0 0 27 c0 24 7 115 45 623 27 348 48 257 -184 785
-112 253 -214 493 -228 534 -27 82 -26 85 36 96 20 3 109 22 198 40 96 21 191
35 232 35 66 0 70 -1 80 -27 7 -16 17 -37 24 -49 7 -11 55 -118 107 -237 52
-119 100 -217 105 -217 6 0 23 24 39 53 51 91 268 461 279 475 7 9 65 12 250
10 l241 -3 7 -35z m-2220 -217 c-11 -16 -29 -39 -40 -53 -12 -14 -21 -29 -21
-33 0 -5 -60 -86 -133 -180 -225 -290 -277 -359 -277 -366 1 -3 121 -287 269
-631 147 -344 266 -628 264 -632 -2 -5 -129 -8 -282 -8 -211 0 -281 3 -288 13
-9 11 -74 166 -231 552 -38 94 -72 179 -76 190 -13 37 -23 -4 -29 -120 -13
-238 -38 -611 -42 -623 -4 -10 -60 -12 -257 -10 l-253 3 3 45 c17 314 82 1285
93 1400 21 219 19 210 42 215 135 31 442 95 457 95 17 0 20 -7 20 -40 0 -22 3
-40 8 -40 4 0 30 24 57 55 l50 56 265 54 c146 31 288 62 315 69 28 8 63 15 78
15 l28 1 -20 -27z m-1475 -450 c-3 -49 -11 -167 -16 -263 -6 -96 -13 -199 -16
-229 l-7 -53 -37 78 c-20 44 -60 107 -89 142 l-52 62 81 0 c97 0 93 -5 110
155 15 153 21 195 28 195 2 0 2 -39 -2 -87z m-551 69 c-6 -5 -39 -31 -75 -59
-36 -28 -73 -60 -84 -72 -22 -24 -41 -18 -26 9 6 10 14 36 18 57 8 37 9 38 77
55 81 19 103 21 90 10z m-299 -112 c55 -45 70 -68 57 -81 -17 -17 -398 -299
-404 -299 -16 0 -167 153 -183 186 -11 22 -23 47 -27 56 -22 45 -13 53 89 76
53 13 167 41 252 62 85 21 158 39 161 39 4 1 28 -17 55 -39z m426 -292 c115
-62 206 -193 229 -332 13 -75 0 -211 -28 -296 -57 -175 -187 -327 -348 -408
-123 -61 -311 -90 -468 -72 -175 20 -288 71 -384 173 -43 46 -113 162 -102
170 28 22 294 229 365 285 52 39 97 72 100 72 4 0 4 -21 1 -47 -9 -70 25 -152
73 -175 69 -35 171 -18 219 37 36 41 50 110 31 155 -12 29 -26 43 -96 97 -16
12 -39 30 -52 40 l-23 18 88 66 c48 37 142 108 207 158 66 50 122 91 124 91 1
0 30 -15 64 -32z m-1007 -257 c3 -5 -27 -35 -67 -66 l-73 -56 -3 45 c-5 72 8
86 78 86 32 0 61 -4 65 -9z"/>
</g>
</svg>
