<?xml version="1.0" encoding="UTF-8" standalone="no"?><!-- Generator: Gravit.io --><svg xmlns="http://www.w3.org/2000/svg" xmlns:xlink="http://www.w3.org/1999/xlink" style="isolation:isolate" viewBox="0 0 66 66" width="66pt" height="66pt"><path d=" M 50.5 19.316 C 50.5 9.667 42.65 1.816 33 1.816 C 23.35 1.816 15.5 9.667 15.5 19.316 C 15.5 25.475 18.705 30.891 23.529 34.01 L 32.103 54.814 C 32.253 55.178 32.607 55.415 32.999 55.415 C 33.394 55.415 33.747 55.178 33.897 54.814 L 42.471 34.009 C 47.295 30.89 50.5 25.475 50.5 19.316 Z " id="Путь" fill="rgb(214,9,73)"/><path d=" M 33 55.415 C 33.395 55.415 33.748 55.178 33.898 54.814 L 42.472 34.009 C 47.294 30.889 50.499 25.474 50.499 19.316 C 50.499 9.667 42.649 1.816 32.999 1.816" id="Путь" fill="rgb(178,0,64)"/><circle vector-effect="non-scaling-stroke" cx="33" cy="61.879999999999995" r="2.3040000000000003" id="Эллипс" fill="rgb(214,9,73)"/><circle vector-effect="non-scaling-stroke" cx="33" cy="19.155" r="7.356999999999999" id="Эллипс" fill="rgb(235,240,242)"/><path d=" M 33 11.798 C 37.064 11.798 40.357 15.092 40.357 19.155 C 40.357 23.217 37.064 26.512 33 26.512" id="Путь" fill="rgb(198,214,219)"/><mask id="_mask_ZPkVIcLrDYO1QRaysGBBKamBAmc6TBOa" x="-200%" y="-200%" width="400%" height="400%"><rect x="-200%" y="-200%" width="400%" height="400%" style="fill:white;"/><path d=" M 18.333 13.81 L 19.695 10.516 L 24.95 12.689 L 24.95 12.689 Q 25.398 12.874 25.703 13.173 L 25.703 13.173 L 25.703 13.173 Q 26.008 13.472 26.15 13.846 L 26.15 13.846 L 26.15 13.846 Q 26.293 14.221 26.275 14.654 L 26.275 14.654 L 26.275 14.654 Q 26.257 15.086 26.072 15.534 L 26.072 15.534 L 26.072 15.534 Q 25.731 16.357 25.085 16.679 L 25.085 16.679 L 25.085 16.679 Q 24.44 17.001 23.647 16.84 L 23.647 16.84 L 23.783 15.992 L 23.783 15.992 Q 24.283 16.08 24.692 15.915 L 24.692 15.915 L 24.692 15.915 Q 25.101 15.751 25.328 15.202 L 25.328 15.202 L 25.328 15.202 Q 25.555 14.653 25.345 14.209 L 25.345 14.209 L 25.345 14.209 Q 25.135 13.766 24.453 13.483 L 24.453 13.483 L 20.094 11.681 L 19.085 14.121 L 18.333 13.81 L 18.333 13.81 Z  M 31.577 10.765 L 31.227 9.921 L 31.187 9.938 L 31.187 9.938 Q 31.181 10.153 31.137 10.378 L 31.137 10.378 L 31.137 10.378 Q 31.093 10.602 30.977 10.81 L 30.977 10.81 L 30.977 10.81 Q 30.86 11.017 30.65 11.199 L 30.65 11.199 L 30.65 11.199 Q 30.439 11.38 30.114 11.515 L 30.114 11.515 L 30.114 11.515 Q 29.301 11.852 28.607 11.527 L 28.607 11.527 L 28.607 11.527 Q 27.912 11.202 27.516 10.247 L 27.516 10.247 L 26.121 6.884 L 26.934 6.547 L 28.273 9.775 L 28.273 9.775 Q 28.86 11.19 30.059 10.693 L 30.059 10.693 L 30.059 10.693 Q 30.303 10.592 30.506 10.436 L 30.506 10.436 L 30.506 10.436 Q 30.709 10.28 30.836 10.084 L 30.836 10.084 L 30.836 10.084 Q 30.963 9.888 30.992 9.655 L 30.992 9.655 L 30.992 9.655 Q 31.02 9.423 30.911 9.158 L 30.911 9.158 L 29.403 5.522 L 30.216 5.185 L 32.39 10.428 L 31.577 10.765 L 31.577 10.765 Z  M 35.936 11.415 L 35.936 11.415 L 35.936 11.415 Q 35.204 11.111 34.827 10.627 L 34.827 10.627 L 34.827 10.627 Q 34.451 10.144 34.289 9.529 L 34.289 9.529 L 35.062 9.302 L 35.062 9.302 Q 35.207 9.814 35.496 10.178 L 35.496 10.178 L 35.496 10.178 Q 35.786 10.543 36.283 10.749 L 36.283 10.749 L 36.283 10.749 Q 36.802 10.964 37.184 10.861 L 37.184 10.861 L 37.184 10.861 Q 37.566 10.757 37.735 10.351 L 37.735 10.351 L 37.735 10.351 Q 37.861 10.046 37.754 9.745 L 37.754 9.745 L 37.754 9.745 Q 37.646 9.445 37.162 9.148 L 37.162 9.148 L 36.77 8.915 L 36.77 8.915 Q 36.426 8.712 36.165 8.479 L 36.165 8.479 L 36.165 8.479 Q 35.905 8.246 35.75 7.973 L 35.75 7.973 L 35.75 7.973 Q 35.595 7.701 35.578 7.384 L 35.578 7.384 L 35.578 7.384 Q 35.56 7.067 35.712 6.701 L 35.712 6.701 L 35.712 6.701 Q 35.872 6.315 36.134 6.084 L 36.134 6.084 L 36.134 6.084 Q 36.397 5.854 36.726 5.764 L 36.726 5.764 L 36.726 5.764 Q 37.055 5.674 37.44 5.721 L 37.44 5.721 L 37.44 5.721 Q 37.826 5.768 38.222 5.932 L 38.222 5.932 L 38.222 5.932 Q 38.862 6.198 39.201 6.6 L 39.201 6.6 L 39.201 6.6 Q 39.54 7.003 39.701 7.534 L 39.701 7.534 L 38.96 7.799 L 38.96 7.799 Q 38.889 7.483 38.636 7.146 L 38.636 7.146 L 38.636 7.146 Q 38.382 6.809 37.874 6.598 L 37.874 6.598 L 37.874 6.598 Q 37.366 6.387 37.017 6.498 L 37.017 6.498 L 37.017 6.498 Q 36.667 6.609 36.511 6.985 L 36.511 6.985 L 36.511 6.985 Q 36.351 7.371 36.538 7.651 L 36.538 7.651 L 36.538 7.651 Q 36.726 7.932 37.18 8.215 L 37.18 8.215 L 37.561 8.445 L 37.561 8.445 Q 38.38 8.939 38.592 9.462 L 38.592 9.462 L 38.592 9.462 Q 38.804 9.984 38.555 10.584 L 38.555 10.584 L 38.555 10.584 Q 38.239 11.346 37.54 11.568 L 37.54 11.568 L 37.54 11.568 Q 36.84 11.79 35.936 11.415 Z  M 40.293 15.175 L 39.682 14.261 L 39.682 14.261 Q 39.425 13.877 39.508 13.537 L 39.508 13.537 L 39.508 13.537 Q 39.591 13.197 39.938 12.965 L 39.938 12.965 L 43.232 10.763 L 42.712 9.985 L 43.361 9.551 L 43.655 9.99 L 43.655 9.99 Q 43.814 10.228 43.968 10.251 L 43.968 10.251 L 43.968 10.251 Q 44.122 10.273 44.36 10.114 L 44.36 10.114 L 45.237 9.527 L 45.678 10.186 L 44.37 11.06 L 45.061 12.093 L 44.412 12.527 L 43.721 11.494 L 40.301 13.781 L 40.943 14.741 L 40.293 15.175 L 40.293 15.175 Z " id="Составной путь" fill="black" stroke="none"/></mask><path d=" M 18.333 13.81 L 19.695 10.516 L 24.95 12.689 L 24.95 12.689 Q 25.398 12.874 25.703 13.173 L 25.703 13.173 L 25.703 13.173 Q 26.008 13.472 26.15 13.846 L 26.15 13.846 L 26.15 13.846 Q 26.293 14.221 26.275 14.654 L 26.275 14.654 L 26.275 14.654 Q 26.257 15.086 26.072 15.534 L 26.072 15.534 L 26.072 15.534 Q 25.731 16.357 25.085 16.679 L 25.085 16.679 L 25.085 16.679 Q 24.44 17.001 23.647 16.84 L 23.647 16.84 L 23.783 15.992 L 23.783 15.992 Q 24.283 16.08 24.692 15.915 L 24.692 15.915 L 24.692 15.915 Q 25.101 15.751 25.328 15.202 L 25.328 15.202 L 25.328 15.202 Q 25.555 14.653 25.345 14.209 L 25.345 14.209 L 25.345 14.209 Q 25.135 13.766 24.453 13.483 L 24.453 13.483 L 20.094 11.681 L 19.085 14.121 L 18.333 13.81 L 18.333 13.81 Z  M 31.577 10.765 L 31.227 9.921 L 31.187 9.938 L 31.187 9.938 Q 31.181 10.153 31.137 10.378 L 31.137 10.378 L 31.137 10.378 Q 31.093 10.602 30.977 10.81 L 30.977 10.81 L 30.977 10.81 Q 30.86 11.017 30.65 11.199 L 30.65 11.199 L 30.65 11.199 Q 30.439 11.38 30.114 11.515 L 30.114 11.515 L 30.114 11.515 Q 29.301 11.852 28.607 11.527 L 28.607 11.527 L 28.607 11.527 Q 27.912 11.202 27.516 10.247 L 27.516 10.247 L 26.121 6.884 L 26.934 6.547 L 28.273 9.775 L 28.273 9.775 Q 28.86 11.19 30.059 10.693 L 30.059 10.693 L 30.059 10.693 Q 30.303 10.592 30.506 10.436 L 30.506 10.436 L 30.506 10.436 Q 30.709 10.28 30.836 10.084 L 30.836 10.084 L 30.836 10.084 Q 30.963 9.888 30.992 9.655 L 30.992 9.655 L 30.992 9.655 Q 31.02 9.423 30.911 9.158 L 30.911 9.158 L 29.403 5.522 L 30.216 5.185 L 32.39 10.428 L 31.577 10.765 L 31.577 10.765 Z  M 35.936 11.415 L 35.936 11.415 L 35.936 11.415 Q 35.204 11.111 34.827 10.627 L 34.827 10.627 L 34.827 10.627 Q 34.451 10.144 34.289 9.529 L 34.289 9.529 L 35.062 9.302 L 35.062 9.302 Q 35.207 9.814 35.496 10.178 L 35.496 10.178 L 35.496 10.178 Q 35.786 10.543 36.283 10.749 L 36.283 10.749 L 36.283 10.749 Q 36.802 10.964 37.184 10.861 L 37.184 10.861 L 37.184 10.861 Q 37.566 10.757 37.735 10.351 L 37.735 10.351 L 37.735 10.351 Q 37.861 10.046 37.754 9.745 L 37.754 9.745 L 37.754 9.745 Q 37.646 9.445 37.162 9.148 L 37.162 9.148 L 36.77 8.915 L 36.77 8.915 Q 36.426 8.712 36.165 8.479 L 36.165 8.479 L 36.165 8.479 Q 35.905 8.246 35.75 7.973 L 35.75 7.973 L 35.75 7.973 Q 35.595 7.701 35.578 7.384 L 35.578 7.384 L 35.578 7.384 Q 35.56 7.067 35.712 6.701 L 35.712 6.701 L 35.712 6.701 Q 35.872 6.315 36.134 6.084 L 36.134 6.084 L 36.134 6.084 Q 36.397 5.854 36.726 5.764 L 36.726 5.764 L 36.726 5.764 Q 37.055 5.674 37.44 5.721 L 37.44 5.721 L 37.44 5.721 Q 37.826 5.768 38.222 5.932 L 38.222 5.932 L 38.222 5.932 Q 38.862 6.198 39.201 6.6 L 39.201 6.6 L 39.201 6.6 Q 39.54 7.003 39.701 7.534 L 39.701 7.534 L 38.96 7.799 L 38.96 7.799 Q 38.889 7.483 38.636 7.146 L 38.636 7.146 L 38.636 7.146 Q 38.382 6.809 37.874 6.598 L 37.874 6.598 L 37.874 6.598 Q 37.366 6.387 37.017 6.498 L 37.017 6.498 L 37.017 6.498 Q 36.667 6.609 36.511 6.985 L 36.511 6.985 L 36.511 6.985 Q 36.351 7.371 36.538 7.651 L 36.538 7.651 L 36.538 7.651 Q 36.726 7.932 37.18 8.215 L 37.18 8.215 L 37.561 8.445 L 37.561 8.445 Q 38.38 8.939 38.592 9.462 L 38.592 9.462 L 38.592 9.462 Q 38.804 9.984 38.555 10.584 L 38.555 10.584 L 38.555 10.584 Q 38.239 11.346 37.54 11.568 L 37.54 11.568 L 37.54 11.568 Q 36.84 11.79 35.936 11.415 Z  M 40.293 15.175 L 39.682 14.261 L 39.682 14.261 Q 39.425 13.877 39.508 13.537 L 39.508 13.537 L 39.508 13.537 Q 39.591 13.197 39.938 12.965 L 39.938 12.965 L 43.232 10.763 L 42.712 9.985 L 43.361 9.551 L 43.655 9.99 L 43.655 9.99 Q 43.814 10.228 43.968 10.251 L 43.968 10.251 L 43.968 10.251 Q 44.122 10.273 44.36 10.114 L 44.36 10.114 L 45.237 9.527 L 45.678 10.186 L 44.37 11.06 L 45.061 12.093 L 44.412 12.527 L 43.721 11.494 L 40.301 13.781 L 40.943 14.741 L 40.293 15.175 L 40.293 15.175 Z " id="Составной путь" fill="rgb(255,255,255)"/><path d=" M 18.333 13.81 L 19.695 10.516 L 24.95 12.689 L 24.95 12.689 Q 25.398 12.874 25.703 13.173 L 25.703 13.173 L 25.703 13.173 Q 26.008 13.472 26.15 13.846 L 26.15 13.846 L 26.15 13.846 Q 26.293 14.221 26.275 14.654 L 26.275 14.654 L 26.275 14.654 Q 26.257 15.086 26.072 15.534 L 26.072 15.534 L 26.072 15.534 Q 25.731 16.357 25.085 16.679 L 25.085 16.679 L 25.085 16.679 Q 24.44 17.001 23.647 16.84 L 23.647 16.84 L 23.783 15.992 L 23.783 15.992 Q 24.283 16.08 24.692 15.915 L 24.692 15.915 L 24.692 15.915 Q 25.101 15.751 25.328 15.202 L 25.328 15.202 L 25.328 15.202 Q 25.555 14.653 25.345 14.209 L 25.345 14.209 L 25.345 14.209 Q 25.135 13.766 24.453 13.483 L 24.453 13.483 L 20.094 11.681 L 19.085 14.121 L 18.333 13.81 L 18.333 13.81 Z  M 31.577 10.765 L 31.227 9.921 L 31.187 9.938 L 31.187 9.938 Q 31.181 10.153 31.137 10.378 L 31.137 10.378 L 31.137 10.378 Q 31.093 10.602 30.977 10.81 L 30.977 10.81 L 30.977 10.81 Q 30.86 11.017 30.65 11.199 L 30.65 11.199 L 30.65 11.199 Q 30.439 11.38 30.114 11.515 L 30.114 11.515 L 30.114 11.515 Q 29.301 11.852 28.607 11.527 L 28.607 11.527 L 28.607 11.527 Q 27.912 11.202 27.516 10.247 L 27.516 10.247 L 26.121 6.884 L 26.934 6.547 L 28.273 9.775 L 28.273 9.775 Q 28.86 11.19 30.059 10.693 L 30.059 10.693 L 30.059 10.693 Q 30.303 10.592 30.506 10.436 L 30.506 10.436 L 30.506 10.436 Q 30.709 10.28 30.836 10.084 L 30.836 10.084 L 30.836 10.084 Q 30.963 9.888 30.992 9.655 L 30.992 9.655 L 30.992 9.655 Q 31.02 9.423 30.911 9.158 L 30.911 9.158 L 29.403 5.522 L 30.216 5.185 L 32.39 10.428 L 31.577 10.765 L 31.577 10.765 Z  M 35.936 11.415 L 35.936 11.415 L 35.936 11.415 Q 35.204 11.111 34.827 10.627 L 34.827 10.627 L 34.827 10.627 Q 34.451 10.144 34.289 9.529 L 34.289 9.529 L 35.062 9.302 L 35.062 9.302 Q 35.207 9.814 35.496 10.178 L 35.496 10.178 L 35.496 10.178 Q 35.786 10.543 36.283 10.749 L 36.283 10.749 L 36.283 10.749 Q 36.802 10.964 37.184 10.861 L 37.184 10.861 L 37.184 10.861 Q 37.566 10.757 37.735 10.351 L 37.735 10.351 L 37.735 10.351 Q 37.861 10.046 37.754 9.745 L 37.754 9.745 L 37.754 9.745 Q 37.646 9.445 37.162 9.148 L 37.162 9.148 L 36.77 8.915 L 36.77 8.915 Q 36.426 8.712 36.165 8.479 L 36.165 8.479 L 36.165 8.479 Q 35.905 8.246 35.75 7.973 L 35.75 7.973 L 35.75 7.973 Q 35.595 7.701 35.578 7.384 L 35.578 7.384 L 35.578 7.384 Q 35.56 7.067 35.712 6.701 L 35.712 6.701 L 35.712 6.701 Q 35.872 6.315 36.134 6.084 L 36.134 6.084 L 36.134 6.084 Q 36.397 5.854 36.726 5.764 L 36.726 5.764 L 36.726 5.764 Q 37.055 5.674 37.44 5.721 L 37.44 5.721 L 37.44 5.721 Q 37.826 5.768 38.222 5.932 L 38.222 5.932 L 38.222 5.932 Q 38.862 6.198 39.201 6.6 L 39.201 6.6 L 39.201 6.6 Q 39.54 7.003 39.701 7.534 L 39.701 7.534 L 38.96 7.799 L 38.96 7.799 Q 38.889 7.483 38.636 7.146 L 38.636 7.146 L 38.636 7.146 Q 38.382 6.809 37.874 6.598 L 37.874 6.598 L 37.874 6.598 Q 37.366 6.387 37.017 6.498 L 37.017 6.498 L 37.017 6.498 Q 36.667 6.609 36.511 6.985 L 36.511 6.985 L 36.511 6.985 Q 36.351 7.371 36.538 7.651 L 36.538 7.651 L 36.538 7.651 Q 36.726 7.932 37.18 8.215 L 37.18 8.215 L 37.561 8.445 L 37.561 8.445 Q 38.38 8.939 38.592 9.462 L 38.592 9.462 L 38.592 9.462 Q 38.804 9.984 38.555 10.584 L 38.555 10.584 L 38.555 10.584 Q 38.239 11.346 37.54 11.568 L 37.54 11.568 L 37.54 11.568 Q 36.84 11.79 35.936 11.415 Z  M 40.293 15.175 L 39.682 14.261 L 39.682 14.261 Q 39.425 13.877 39.508 13.537 L 39.508 13.537 L 39.508 13.537 Q 39.591 13.197 39.938 12.965 L 39.938 12.965 L 43.232 10.763 L 42.712 9.985 L 43.361 9.551 L 43.655 9.99 L 43.655 9.99 Q 43.814 10.228 43.968 10.251 L 43.968 10.251 L 43.968 10.251 Q 44.122 10.273 44.36 10.114 L 44.36 10.114 L 45.237 9.527 L 45.678 10.186 L 44.37 11.06 L 45.061 12.093 L 44.412 12.527 L 43.721 11.494 L 40.301 13.781 L 40.943 14.741 L 40.293 15.175 L 40.293 15.175 Z " id="Составной путь" fill="rgb(255,255,255)" mask="url(#_mask_ZPkVIcLrDYO1QRaysGBBKamBAmc6TBOa)" vector-effect="non-scaling-stroke" stroke-width="2" stroke="rgb(0,0,0)" stroke-linejoin="miter" stroke-linecap="square" stroke-miterlimit="3"/><mask id="_mask_t9v9l4s9o8R69isn8em7TQrsmdDXjtap" x="-200%" y="-200%" width="400%" height="400%"><rect x="-200%" y="-200%" width="400%" height="400%" style="fill:white;"/><path d=" M 28.142 35.407 L 28.142 35.407 L 28.142 35.407 Q 27.35 35.407 26.817 35.105 L 26.817 35.105 L 26.817 35.105 Q 26.283 34.802 25.898 34.296 L 25.898 34.296 L 26.525 33.79 L 26.525 33.79 Q 26.855 34.208 27.262 34.433 L 27.262 34.433 L 27.262 34.433 Q 27.669 34.659 28.208 34.659 L 28.208 34.659 L 28.208 34.659 Q 28.769 34.659 29.083 34.417 L 29.083 34.417 L 29.083 34.417 Q 29.396 34.175 29.396 33.735 L 29.396 33.735 L 29.396 33.735 Q 29.396 33.405 29.182 33.168 L 29.182 33.168 L 29.182 33.168 Q 28.967 32.932 28.406 32.844 L 28.406 32.844 L 27.955 32.778 L 27.955 32.778 Q 27.559 32.723 27.229 32.608 L 27.229 32.608 L 27.229 32.608 Q 26.899 32.492 26.652 32.299 L 26.652 32.299 L 26.652 32.299 Q 26.404 32.107 26.267 31.821 L 26.267 31.821 L 26.267 31.821 Q 26.129 31.535 26.129 31.139 L 26.129 31.139 L 26.129 31.139 Q 26.129 30.721 26.283 30.408 L 26.283 30.408 L 26.283 30.408 Q 26.437 30.094 26.707 29.885 L 26.707 29.885 L 26.707 29.885 Q 26.976 29.676 27.35 29.572 L 27.35 29.572 L 27.35 29.572 Q 27.724 29.467 28.153 29.467 L 28.153 29.467 L 28.153 29.467 Q 28.846 29.467 29.314 29.709 L 29.314 29.709 L 29.314 29.709 Q 29.781 29.951 30.133 30.38 L 30.133 30.38 L 29.55 30.908 L 29.55 30.908 Q 29.363 30.644 29 30.429 L 29 30.429 L 29 30.429 Q 28.637 30.215 28.087 30.215 L 28.087 30.215 L 28.087 30.215 Q 27.537 30.215 27.257 30.452 L 27.257 30.452 L 27.257 30.452 Q 26.976 30.688 26.976 31.095 L 26.976 31.095 L 26.976 31.095 Q 26.976 31.513 27.257 31.7 L 27.257 31.7 L 27.257 31.7 Q 27.537 31.887 28.065 31.975 L 28.065 31.975 L 28.505 32.041 L 28.505 32.041 Q 29.451 32.184 29.847 32.585 L 29.847 32.585 L 29.847 32.585 Q 30.243 32.987 30.243 33.636 L 30.243 33.636 L 30.243 33.636 Q 30.243 34.461 29.682 34.934 L 29.682 34.934 L 29.682 34.934 Q 29.121 35.407 28.142 35.407 Z  M 31.794 35.275 L 31.794 27.135 L 32.674 27.135 L 32.674 32.294 L 32.718 32.294 L 33.587 31.326 L 35.193 29.599 L 36.26 29.599 L 34.159 31.843 L 36.469 35.275 L 35.402 35.275 L 33.521 32.382 L 32.674 33.251 L 32.674 35.275 L 31.794 35.275 L 31.794 35.275 Z  M 39.714 33.453 L 41.089 29.599 L 41.958 29.599 L 39.417 36.595 L 39.417 36.595 Q 39.318 36.848 39.219 37.018 L 39.219 37.018 L 39.219 37.018 Q 39.12 37.189 38.977 37.288 L 38.977 37.288 L 38.977 37.288 Q 38.834 37.387 38.62 37.431 L 38.62 37.431 L 38.62 37.431 Q 38.405 37.475 38.097 37.475 L 38.097 37.475 L 37.646 37.475 L 37.646 36.694 L 38.537 36.694 L 38.966 35.486 L 36.843 29.599 L 37.723 29.599 L 39.087 33.453 L 39.351 34.375 L 39.406 34.375 L 39.714 33.453 L 39.714 33.453 Z " id="Составной путь" fill="black" stroke="none"/></mask><path d=" M 28.142 35.407 L 28.142 35.407 L 28.142 35.407 Q 27.35 35.407 26.817 35.105 L 26.817 35.105 L 26.817 35.105 Q 26.283 34.802 25.898 34.296 L 25.898 34.296 L 26.525 33.79 L 26.525 33.79 Q 26.855 34.208 27.262 34.433 L 27.262 34.433 L 27.262 34.433 Q 27.669 34.659 28.208 34.659 L 28.208 34.659 L 28.208 34.659 Q 28.769 34.659 29.083 34.417 L 29.083 34.417 L 29.083 34.417 Q 29.396 34.175 29.396 33.735 L 29.396 33.735 L 29.396 33.735 Q 29.396 33.405 29.182 33.168 L 29.182 33.168 L 29.182 33.168 Q 28.967 32.932 28.406 32.844 L 28.406 32.844 L 27.955 32.778 L 27.955 32.778 Q 27.559 32.723 27.229 32.608 L 27.229 32.608 L 27.229 32.608 Q 26.899 32.492 26.652 32.299 L 26.652 32.299 L 26.652 32.299 Q 26.404 32.107 26.267 31.821 L 26.267 31.821 L 26.267 31.821 Q 26.129 31.535 26.129 31.139 L 26.129 31.139 L 26.129 31.139 Q 26.129 30.721 26.283 30.408 L 26.283 30.408 L 26.283 30.408 Q 26.437 30.094 26.707 29.885 L 26.707 29.885 L 26.707 29.885 Q 26.976 29.676 27.35 29.572 L 27.35 29.572 L 27.35 29.572 Q 27.724 29.467 28.153 29.467 L 28.153 29.467 L 28.153 29.467 Q 28.846 29.467 29.314 29.709 L 29.314 29.709 L 29.314 29.709 Q 29.781 29.951 30.133 30.38 L 30.133 30.38 L 29.55 30.908 L 29.55 30.908 Q 29.363 30.644 29 30.429 L 29 30.429 L 29 30.429 Q 28.637 30.215 28.087 30.215 L 28.087 30.215 L 28.087 30.215 Q 27.537 30.215 27.257 30.452 L 27.257 30.452 L 27.257 30.452 Q 26.976 30.688 26.976 31.095 L 26.976 31.095 L 26.976 31.095 Q 26.976 31.513 27.257 31.7 L 27.257 31.7 L 27.257 31.7 Q 27.537 31.887 28.065 31.975 L 28.065 31.975 L 28.505 32.041 L 28.505 32.041 Q 29.451 32.184 29.847 32.585 L 29.847 32.585 L 29.847 32.585 Q 30.243 32.987 30.243 33.636 L 30.243 33.636 L 30.243 33.636 Q 30.243 34.461 29.682 34.934 L 29.682 34.934 L 29.682 34.934 Q 29.121 35.407 28.142 35.407 Z  M 31.794 35.275 L 31.794 27.135 L 32.674 27.135 L 32.674 32.294 L 32.718 32.294 L 33.587 31.326 L 35.193 29.599 L 36.26 29.599 L 34.159 31.843 L 36.469 35.275 L 35.402 35.275 L 33.521 32.382 L 32.674 33.251 L 32.674 35.275 L 31.794 35.275 L 31.794 35.275 Z  M 39.714 33.453 L 41.089 29.599 L 41.958 29.599 L 39.417 36.595 L 39.417 36.595 Q 39.318 36.848 39.219 37.018 L 39.219 37.018 L 39.219 37.018 Q 39.12 37.189 38.977 37.288 L 38.977 37.288 L 38.977 37.288 Q 38.834 37.387 38.62 37.431 L 38.62 37.431 L 38.62 37.431 Q 38.405 37.475 38.097 37.475 L 38.097 37.475 L 37.646 37.475 L 37.646 36.694 L 38.537 36.694 L 38.966 35.486 L 36.843 29.599 L 37.723 29.599 L 39.087 33.453 L 39.351 34.375 L 39.406 34.375 L 39.714 33.453 L 39.714 33.453 Z " id="Составной путь" fill="rgb(255,255,255)"/><path d=" M 28.142 35.407 L 28.142 35.407 L 28.142 35.407 Q 27.35 35.407 26.817 35.105 L 26.817 35.105 L 26.817 35.105 Q 26.283 34.802 25.898 34.296 L 25.898 34.296 L 26.525 33.79 L 26.525 33.79 Q 26.855 34.208 27.262 34.433 L 27.262 34.433 L 27.262 34.433 Q 27.669 34.659 28.208 34.659 L 28.208 34.659 L 28.208 34.659 Q 28.769 34.659 29.083 34.417 L 29.083 34.417 L 29.083 34.417 Q 29.396 34.175 29.396 33.735 L 29.396 33.735 L 29.396 33.735 Q 29.396 33.405 29.182 33.168 L 29.182 33.168 L 29.182 33.168 Q 28.967 32.932 28.406 32.844 L 28.406 32.844 L 27.955 32.778 L 27.955 32.778 Q 27.559 32.723 27.229 32.608 L 27.229 32.608 L 27.229 32.608 Q 26.899 32.492 26.652 32.299 L 26.652 32.299 L 26.652 32.299 Q 26.404 32.107 26.267 31.821 L 26.267 31.821 L 26.267 31.821 Q 26.129 31.535 26.129 31.139 L 26.129 31.139 L 26.129 31.139 Q 26.129 30.721 26.283 30.408 L 26.283 30.408 L 26.283 30.408 Q 26.437 30.094 26.707 29.885 L 26.707 29.885 L 26.707 29.885 Q 26.976 29.676 27.35 29.572 L 27.35 29.572 L 27.35 29.572 Q 27.724 29.467 28.153 29.467 L 28.153 29.467 L 28.153 29.467 Q 28.846 29.467 29.314 29.709 L 29.314 29.709 L 29.314 29.709 Q 29.781 29.951 30.133 30.38 L 30.133 30.38 L 29.55 30.908 L 29.55 30.908 Q 29.363 30.644 29 30.429 L 29 30.429 L 29 30.429 Q 28.637 30.215 28.087 30.215 L 28.087 30.215 L 28.087 30.215 Q 27.537 30.215 27.257 30.452 L 27.257 30.452 L 27.257 30.452 Q 26.976 30.688 26.976 31.095 L 26.976 31.095 L 26.976 31.095 Q 26.976 31.513 27.257 31.7 L 27.257 31.7 L 27.257 31.7 Q 27.537 31.887 28.065 31.975 L 28.065 31.975 L 28.505 32.041 L 28.505 32.041 Q 29.451 32.184 29.847 32.585 L 29.847 32.585 L 29.847 32.585 Q 30.243 32.987 30.243 33.636 L 30.243 33.636 L 30.243 33.636 Q 30.243 34.461 29.682 34.934 L 29.682 34.934 L 29.682 34.934 Q 29.121 35.407 28.142 35.407 Z  M 31.794 35.275 L 31.794 27.135 L 32.674 27.135 L 32.674 32.294 L 32.718 32.294 L 33.587 31.326 L 35.193 29.599 L 36.26 29.599 L 34.159 31.843 L 36.469 35.275 L 35.402 35.275 L 33.521 32.382 L 32.674 33.251 L 32.674 35.275 L 31.794 35.275 L 31.794 35.275 Z  M 39.714 33.453 L 41.089 29.599 L 41.958 29.599 L 39.417 36.595 L 39.417 36.595 Q 39.318 36.848 39.219 37.018 L 39.219 37.018 L 39.219 37.018 Q 39.12 37.189 38.977 37.288 L 38.977 37.288 L 38.977 37.288 Q 38.834 37.387 38.62 37.431 L 38.62 37.431 L 38.62 37.431 Q 38.405 37.475 38.097 37.475 L 38.097 37.475 L 37.646 37.475 L 37.646 36.694 L 38.537 36.694 L 38.966 35.486 L 36.843 29.599 L 37.723 29.599 L 39.087 33.453 L 39.351 34.375 L 39.406 34.375 L 39.714 33.453 L 39.714 33.453 Z " id="Составной путь" fill="rgb(255,255,255)" mask="url(#_mask_t9v9l4s9o8R69isn8em7TQrsmdDXjtap)" vector-effect="non-scaling-stroke" stroke-width="2" stroke="rgb(0,0,0)" stroke-linejoin="miter" stroke-linecap="square" stroke-miterlimit="3"/></svg>