<?xml version="1.0" encoding="iso-8859-1"?>
<!-- Generator: Adobe Illustrator 19.0.0, SVG Export Plug-In . SVG Version: 6.00 Build 0)  -->
<svg version="1.1" id="Layer_1" xmlns="http://www.w3.org/2000/svg" xmlns:xlink="http://www.w3.org/1999/xlink" x="0px" y="0px"
	 viewBox="0 0 512 512" style="enable-background:new 0 0 512 512;" xml:space="preserve">
<circle style="fill:#FEE187;" cx="256" cy="256" r="256"/>
<path style="fill:#FFC61B;" d="M510.168,286.634l-80.086-79.738l-337.624,29.87l-14.76,116.215l158.742,158.28
	C242.897,511.75,249.42,512,256,512C387.015,512,495.028,413.574,510.168,286.634z"/>
<ellipse style="fill:#6288A8;" cx="256" cy="224.539" rx="170.667" ry="42.667"/>
<path style="fill:#366695;" d="M256,181.872c-0.191,0-0.383,0.002-0.574,0.002v85.33c0.191,0,0.383,0.002,0.574,0.002
	c94.256,0,170.667-19.103,170.667-42.667S350.256,181.872,256,181.872z"/>
<path style="fill:#263A7A;" d="M437.872,224.539c0-17.532-19.673-31.341-58.475-41.041C346.3,175.225,302.477,170.667,256,170.667
	s-90.3,4.558-123.397,12.831c-38.802,9.7-58.475,23.509-58.475,41.041c0,1.288,0,120.242,0,120.242
	c0,6.189,5.017,11.205,11.205,11.205s11.205-5.017,11.205-11.205v-92.103c9.211,4.886,21.235,9.194,36.064,12.902
	c30.422,7.606,69.915,12.06,112.192,12.731v102.672c0,6.189,5.017,11.205,11.205,11.205c6.189,0,11.205-5.017,11.205-11.205V278.311
	c42.277-0.672,81.77-5.127,112.192-12.731c14.829-3.706,26.853-8.016,36.064-12.902v92.103c0,6.189,5.017,11.205,11.205,11.205
	s11.205-5.017,11.205-11.205C437.872,344.781,437.872,225.826,437.872,224.539z M371.736,244.384
	C340.616,251.875,299.513,256,256,256s-84.616-4.127-115.736-11.616c-35.006-8.426-43.398-17.825-43.727-19.809
	c0.329-2.055,8.723-11.455,43.727-19.88c31.12-7.49,72.223-11.617,115.736-11.617s84.616,4.127,115.736,11.616
	c34.811,8.378,43.303,17.72,43.722,19.846C415.039,226.663,406.547,236.004,371.736,244.384z"/>
<path style="fill:#121149;" d="M379.397,183.498C346.3,175.225,302.477,170.667,256,170.667c-0.191,0-0.383,0.003-0.574,0.003
	v22.411c0.191,0,0.383-0.003,0.574-0.003c43.513,0,84.616,4.127,115.736,11.616c34.811,8.378,43.303,17.72,43.722,19.846
	c-0.419,2.124-8.911,11.466-43.722,19.846C340.616,251.875,299.513,256,256,256c-0.191,0-0.383-0.003-0.574-0.003v136.163
	c0.191,0.01,0.381,0.029,0.574,0.029c6.189,0,11.205-5.017,11.205-11.205V278.311c42.277-0.672,81.77-5.127,112.192-12.731
	c14.829-3.706,26.853-8.016,36.064-12.902v92.103c0,6.189,5.017,11.205,11.205,11.205s11.205-5.017,11.205-11.205
	c0,0,0-118.955,0-120.242C437.872,207.007,418.199,193.198,379.397,183.498z"/>
<g>
</g>
<g>
</g>
<g>
</g>
<g>
</g>
<g>
</g>
<g>
</g>
<g>
</g>
<g>
</g>
<g>
</g>
<g>
</g>
<g>
</g>
<g>
</g>
<g>
</g>
<g>
</g>
<g>
</g>
</svg>
